<svg width="39" height="14" viewBox="0 0 39 14" fill="none" xmlns="http://www.w3.org/2000/svg">
<path d="M7.44475 1.57763V3.80678H2.79119V6.21491H6.27322V8.37898H2.79119V13H0.00881363V1.57763H7.44475ZM13.04 13.1302C12.1505 13.1302 11.3478 12.9403 10.6319 12.5607C9.92678 12.181 9.36814 11.6386 8.95593 10.9336C8.55458 10.2285 8.3539 9.40407 8.3539 8.46034C8.3539 7.52746 8.56 6.70847 8.9722 6.00339C9.38441 5.28746 9.94847 4.73966 10.6644 4.36C11.3803 3.98034 12.1831 3.79051 13.0725 3.79051C13.962 3.79051 14.7647 3.98034 15.4807 4.36C16.1966 4.73966 16.7607 5.28746 17.1729 6.00339C17.5851 6.70847 17.7912 7.52746 17.7912 8.46034C17.7912 9.39322 17.5797 10.2176 17.1566 10.9336C16.7444 11.6386 16.1749 12.181 15.4481 12.5607C14.7322 12.9403 13.9295 13.1302 13.04 13.1302ZM13.04 10.722C13.5715 10.722 14.0217 10.5268 14.3905 10.1363C14.7702 9.74576 14.96 9.18712 14.96 8.46034C14.96 7.73356 14.7756 7.17491 14.4068 6.78441C14.0488 6.3939 13.6041 6.19864 13.0725 6.19864C12.5302 6.19864 12.08 6.3939 11.722 6.78441C11.3641 7.16407 11.1851 7.72271 11.1851 8.46034C11.1851 9.18712 11.3586 9.74576 11.7058 10.1363C12.0637 10.5268 12.5085 10.722 13.04 10.722ZM23.4002 13.1302C22.5107 13.1302 21.708 12.9403 20.992 12.5607C20.2869 12.181 19.7283 11.6386 19.3161 10.9336C18.9147 10.2285 18.7141 9.40407 18.7141 8.46034C18.7141 7.52746 18.9202 6.70847 19.3324 6.00339C19.7446 5.28746 20.3086 4.73966 21.0246 4.36C21.7405 3.98034 22.5432 3.79051 23.4327 3.79051C24.3222 3.79051 25.1249 3.98034 25.8408 4.36C26.5568 4.73966 27.1208 5.28746 27.5331 6.00339C27.9453 6.70847 28.1514 7.52746 28.1514 8.46034C28.1514 9.39322 27.9398 10.2176 27.5168 10.9336C27.1046 11.6386 26.5351 12.181 25.8083 12.5607C25.0924 12.9403 24.2897 13.1302 23.4002 13.1302ZM23.4002 10.722C23.9317 10.722 24.3819 10.5268 24.7507 10.1363C25.1303 9.74576 25.3202 9.18712 25.3202 8.46034C25.3202 7.73356 25.1358 7.17491 24.7669 6.78441C24.409 6.3939 23.9642 6.19864 23.4327 6.19864C22.8903 6.19864 22.4402 6.3939 22.0822 6.78441C21.7242 7.16407 21.5453 7.72271 21.5453 8.46034C21.5453 9.18712 21.7188 9.74576 22.0659 10.1363C22.4239 10.5268 22.8686 10.722 23.4002 10.722ZM29.0742 8.44407C29.0742 7.51119 29.2478 6.6922 29.5949 5.98712C29.9529 5.28203 30.4356 4.73966 31.0431 4.36C31.6505 3.98034 32.3285 3.79051 33.077 3.79051C33.6736 3.79051 34.2159 3.91525 34.7041 4.16474C35.2031 4.41424 35.5936 4.75051 35.8756 5.17356V0.959322H38.658V13H35.8756V11.6983C35.6153 12.1322 35.241 12.4793 34.7529 12.7397C34.2756 13 33.717 13.1302 33.077 13.1302C32.3285 13.1302 31.6505 12.9403 31.0431 12.5607C30.4356 12.1702 29.9529 11.6224 29.5949 10.9173C29.2478 10.2014 29.0742 9.37695 29.0742 8.44407ZM35.8756 8.46034C35.8756 7.7661 35.6803 7.2183 35.2898 6.81695C34.9102 6.41559 34.4437 6.21491 33.8905 6.21491C33.3373 6.21491 32.8654 6.41559 32.4749 6.81695C32.0953 7.20746 31.9054 7.74983 31.9054 8.44407C31.9054 9.1383 32.0953 9.69153 32.4749 10.1037C32.8654 10.5051 33.3373 10.7058 33.8905 10.7058C34.4437 10.7058 34.9102 10.5051 35.2898 10.1037C35.6803 9.70237 35.8756 9.15458 35.8756 8.46034Z" fill="#FF2253"/>
</svg>
