<svg width="73" height="19" viewBox="0 0 73 19" fill="none" xmlns="http://www.w3.org/2000/svg">
<path d="M9.17492 18L4.05492 11.2746V18H0.345085V2.77017H4.05492V9.4522L9.13153 2.77017H13.4922L7.59119 10.2332L13.7092 18H9.17492ZM26.8837 11.7519C26.8837 12.099 26.862 12.4606 26.8186 12.8366H18.4227C18.4806 13.5887 18.7192 14.1672 19.1386 14.5722C19.5725 14.9627 20.1005 15.158 20.7224 15.158C21.648 15.158 22.2916 14.7675 22.6532 13.9864H26.6017C26.3992 14.7819 26.0304 15.4979 25.4953 16.1342C24.9746 16.7706 24.3165 17.2696 23.521 17.6312C22.7255 17.9928 21.836 18.1736 20.8525 18.1736C19.6666 18.1736 18.6107 17.9205 17.6851 17.4142C16.7594 16.908 16.0363 16.1849 15.5156 15.2447C14.9949 14.3046 14.7346 13.2054 14.7346 11.9471C14.7346 10.6888 14.9877 9.5896 15.4939 8.64949C16.0146 7.70938 16.7377 6.98621 17.6634 6.48C18.589 5.97378 19.6521 5.72068 20.8525 5.72068C22.0241 5.72068 23.0654 5.96655 23.9766 6.4583C24.8878 6.95005 25.5965 7.65152 26.1027 8.56271C26.6234 9.4739 26.8837 10.5369 26.8837 11.7519ZM23.0871 10.7756C23.0871 10.1392 22.8702 9.63299 22.4363 9.25695C22.0024 8.8809 21.46 8.69288 20.8092 8.69288C20.1872 8.69288 19.6593 8.87367 19.2254 9.23525C18.806 9.59684 18.5457 10.1103 18.4444 10.7756H23.0871ZM36.2171 5.76407C37.6345 5.76407 38.7627 6.22689 39.6015 7.15254C40.4549 8.06373 40.8815 9.32203 40.8815 10.9275V18H37.1934V11.4264C37.1934 10.6165 36.9837 9.98734 36.5642 9.53898C36.1448 9.09062 35.5807 8.86644 34.872 8.86644C34.1633 8.86644 33.5993 9.09062 33.1798 9.53898C32.7604 9.98734 32.5507 10.6165 32.5507 11.4264V18H28.8409V5.89424H32.5507V7.49966C32.9267 6.96452 33.4329 6.54508 34.0693 6.24135C34.7057 5.92316 35.4216 5.76407 36.2171 5.76407ZM46.9307 14.941H52.1809V18H42.787V15.0495L47.8202 8.95322H42.8303V5.89424H52.0724V8.84474L46.9307 14.941ZM56.088 4.63593C55.4371 4.63593 54.902 4.44791 54.4825 4.07186C54.0776 3.68135 53.8751 3.20407 53.8751 2.64C53.8751 2.06147 54.0776 1.58418 54.4825 1.20813C54.902 0.817624 55.4371 0.62237 56.088 0.62237C56.7244 0.62237 57.245 0.817624 57.65 1.20813C58.0694 1.58418 58.2792 2.06147 58.2792 2.64C58.2792 3.20407 58.0694 3.68135 57.65 4.07186C57.245 4.44791 56.7244 4.63593 56.088 4.63593ZM57.932 5.89424V18H54.2222V5.89424H57.932ZM72.032 11.7519C72.032 12.099 72.0103 12.4606 71.967 12.8366H63.571C63.6289 13.5887 63.8675 14.1672 64.287 14.5722C64.7209 14.9627 65.2488 15.158 65.8707 15.158C66.7963 15.158 67.4399 14.7675 67.8015 13.9864H71.75C71.5475 14.7819 71.1787 15.4979 70.6436 16.1342C70.1229 16.7706 69.4648 17.2696 68.6693 17.6312C67.8738 17.9928 66.9844 18.1736 66.0009 18.1736C64.8149 18.1736 63.759 17.9205 62.8334 17.4142C61.9077 16.908 61.1846 16.1849 60.6639 15.2447C60.1432 14.3046 59.8829 13.2054 59.8829 11.9471C59.8829 10.6888 60.136 9.5896 60.6422 8.64949C61.1629 7.70938 61.8861 6.98621 62.8117 6.48C63.7374 5.97378 64.8004 5.72068 66.0009 5.72068C67.1724 5.72068 68.2137 5.96655 69.1249 6.4583C70.0361 6.95005 70.7448 7.65152 71.251 8.56271C71.7717 9.4739 72.032 10.5369 72.032 11.7519ZM68.2354 10.7756C68.2354 10.1392 68.0185 9.63299 67.5846 9.25695C67.1507 8.8809 66.6083 8.69288 65.9575 8.69288C65.3355 8.69288 64.8076 8.87367 64.3737 9.23525C63.9543 9.59684 63.694 10.1103 63.5927 10.7756H68.2354Z" fill="#212529"/>
</svg>
